<svg width="20" height="24" viewBox="0 0 20 24" fill="none" xmlns="http://www.w3.org/2000/svg">
<path d="M16.9072 11.9485C16.6186 11.7835 16.3196 11.6495 16.0206 11.5361C16.3196 11.4227 16.6186 11.2887 16.9072 11.1237C18.8866 9.97938 19.9897 7.90722 20 5.7732C18.1546 4.71134 15.8041 4.62887 13.8144 5.7732C13.5258 5.93814 13.2577 6.13402 13.0103 6.3299C13.0619 6.01031 13.0928 5.68041 13.0928 5.35052C13.0928 3.06186 11.8454 1.07216 10 0C8.15464 1.07216 6.90722 3.06186 6.90722 5.35052C6.90722 5.68041 6.93814 6.01031 6.98969 6.3299C6.74227 6.12371 6.47423 5.92783 6.18557 5.76289C4.20619 4.61856 1.85567 4.70103 0 5.76289C0 7.89691 1.10309 9.96907 3.09278 11.1134C3.38144 11.2783 3.68041 11.4124 3.97938 11.5258C3.68041 11.6392 3.38144 11.7732 3.09278 11.9381C1.1134 13.0825 0.0103093 15.1546 0 17.2887C1.84536 18.3505 4.19588 18.433 6.18557 17.2887C6.47423 17.1237 6.74227 16.9278 6.98969 16.732C6.93814 17.0619 6.90722 17.3918 6.90722 17.7216C6.90722 20.0103 8.15464 22 10 23.0722C11.8454 22 13.0928 20.0103 13.0928 17.7216C13.0928 17.3918 13.0619 17.0619 13.0103 16.7423C13.2577 16.9485 13.5258 17.134 13.8144 17.299C15.7938 18.4433 18.1443 18.3608 20 17.299C19.9897 15.1649 18.8866 13.0928 16.9072 11.9485ZM10 15.6598C7.72165 15.6598 5.87629 13.8144 5.87629 11.5361C5.87629 9.25773 7.72165 7.41237 10 7.41237C12.2783 7.41237 14.1237 9.25773 14.1237 11.5361C14.1237 13.8144 12.2783 15.6598 10 15.6598Z" fill="#11C4FC"/>
</svg>
