<svg xmlns="http://www.w3.org/2000/svg" width="27" height="27" viewBox="0 0 27 27">
  <g id="aboutus" transform="translate(-25 -192)">
    <rect id="Rectangle_14" data-name="Rectangle 14" width="27" height="27" rx="4" transform="translate(25 192)" fill="none"/>
    <g id="aboutus-2" data-name="aboutus" transform="translate(26.953 192.001)">
      <path id="Path_36" data-name="Path 36" d="M-205.9,57.009a11.385,11.385,0,0,0-3.178-6.042,11.252,11.252,0,0,0-6.01-3.178c-.325-.058-.661-.1-.986-.147q-.222-.029-.443-.061h-1.453l-.032.008a1.278,1.278,0,0,1-.215.038,10.924,10.924,0,0,0-3.031.666,11.416,11.416,0,0,0-7.437,12.29,11.279,11.279,0,0,0,7.717,9.476,1.169,1.169,0,0,1,.529.4c.581.843,1.164,1.7,1.728,2.536l.765,1.127a.89.89,0,0,0,.7.456.888.888,0,0,0,.7-.456l.8-1.181c.552-.814,1.124-1.656,1.691-2.481a1.072,1.072,0,0,1,.514-.4A11.552,11.552,0,0,0-205.9,57.009Zm-8.484,11.759a1.134,1.134,0,0,0-.659.487c-.447.672-.893,1.327-1.365,2.021l-.557.817-.276.408-.284-.4c-.035-.05-.067-.1-.1-.138-.062-.088-.118-.167-.172-.247l-.446-.654c-.393-.577-.8-1.173-1.19-1.768a1.294,1.294,0,0,0-.749-.545,9.8,9.8,0,0,1-6.581-6.341,9.9,9.9,0,0,1,.627-8.02,10.143,10.143,0,0,1,6.407-5.013,9.949,9.949,0,0,1,2.47-.313,10.148,10.148,0,0,1,9.914,8.316,10.01,10.01,0,0,1-7.044,11.4Z" transform="translate(228.799 -47.582)" fill="#30475e"/>
      <path id="Path_37" data-name="Path 37" d="M-205.9,57.009a11.385,11.385,0,0,0-3.178-6.042,11.252,11.252,0,0,0-6.01-3.178c-.325-.058-.661-.1-.986-.147q-.222-.029-.443-.061h-1.453l-.032.008a1.278,1.278,0,0,1-.215.038,10.924,10.924,0,0,0-3.031.666,11.416,11.416,0,0,0-7.437,12.29,11.279,11.279,0,0,0,7.717,9.476,1.169,1.169,0,0,1,.529.4c.581.843,1.164,1.7,1.728,2.536l.765,1.127a.89.89,0,0,0,.7.456.888.888,0,0,0,.7-.456l.8-1.181c.552-.814,1.124-1.656,1.691-2.481a1.072,1.072,0,0,1,.514-.4A11.552,11.552,0,0,0-205.9,57.009Zm-8.484,11.759a1.134,1.134,0,0,0-.659.487c-.447.672-.893,1.327-1.365,2.021l-.557.817-.276.408-.284-.4c-.035-.05-.067-.1-.1-.138-.062-.088-.118-.167-.172-.247l-.446-.654c-.393-.577-.8-1.173-1.19-1.768a1.294,1.294,0,0,0-.749-.545,9.8,9.8,0,0,1-6.581-6.341,9.9,9.9,0,0,1,.627-8.02,10.143,10.143,0,0,1,6.407-5.013,9.949,9.949,0,0,1,2.47-.313,10.148,10.148,0,0,1,9.914,8.316,10.01,10.01,0,0,1-7.044,11.4Z" transform="translate(228.799 -47.582)" fill="#30475e"/>
      <path id="Path_38" data-name="Path 38" d="M-175.083,101.657a.318.318,0,0,1-.178.324,1.358,1.358,0,0,1-.679.2,1.359,1.359,0,0,1-.638-.172.348.348,0,0,1-.2-.359c.006-1.876.006-3.749,0-5.568a.343.343,0,0,1,.239-.376,1.643,1.643,0,0,1,.607-.122,1.5,1.5,0,0,1,.642.148.31.31,0,0,1,.208.33c-.007.675-.006,1.361,0,2.024v1.562C-175.089,100.3-175.09,100.986-175.083,101.657Z" transform="translate(187.482 -85.704)" fill="#30475e"/>
      <path id="Path_39" data-name="Path 39" d="M-175.083,101.657a.318.318,0,0,1-.178.324,1.358,1.358,0,0,1-.679.2,1.359,1.359,0,0,1-.638-.172.348.348,0,0,1-.2-.359c.006-1.876.006-3.749,0-5.568a.343.343,0,0,1,.239-.376,1.643,1.643,0,0,1,.607-.122,1.5,1.5,0,0,1,.642.148.31.31,0,0,1,.208.33c-.007.675-.006,1.361,0,2.024v1.562C-175.089,100.3-175.09,100.986-175.083,101.657Z" transform="translate(187.482 -85.704)" fill="#30475e"/>
      <path id="Path_40" data-name="Path 40" d="M-175.289,78.947a.889.889,0,0,1-.89.705h-.01a.879.879,0,0,1-.9-.708.687.687,0,0,1,.2-.512.932.932,0,0,1,.679-.287.676.676,0,0,1,.085,0,1.235,1.235,0,0,1,.23.038A.782.782,0,0,1-175.289,78.947Z" transform="translate(187.729 -71.858)" fill="#30475e"/>
      <path id="Path_41" data-name="Path 41" d="M-175.289,78.947a.889.889,0,0,1-.89.705h-.01a.879.879,0,0,1-.9-.708.687.687,0,0,1,.2-.512.932.932,0,0,1,.679-.287.676.676,0,0,1,.085,0,1.235,1.235,0,0,1,.23.038A.782.782,0,0,1-175.289,78.947Z" transform="translate(187.729 -71.858)" fill="#30475e"/>
    </g>
  </g>
</svg>
