<svg xmlns="http://www.w3.org/2000/svg" width="27" height="27" viewBox="0 0 27 27">
  <g id="darkmode" transform="translate(-25 -145)">
    <rect id="Rectangle_13" data-name="Rectangle 13" width="27" height="27" rx="4" transform="translate(25 145)" fill="none"/>
    <g id="darkmode-2" data-name="darkmode" transform="translate(25.001 147.505)">
      <path id="Path_22" data-name="Path 22" d="M-246.844-124.37c-.045.159-.084.32-.134.477a2.776,2.776,0,0,1-2.632,1.957c-2.073.012-4.147,0-6.222,0h-15.1a2.793,2.793,0,0,1-2.823-2.158,3.175,3.175,0,0,1-.081-.734q-.008-4.273,0-8.546a2.809,2.809,0,0,1,.817-2.08,2.809,2.809,0,0,1,2.077-.825q10.609,0,21.218,0a2.8,2.8,0,0,1,2.838,2.339.389.389,0,0,0,.045.09Zm-14.312.851v-11.168h-9.718a1.248,1.248,0,0,0-1.386,1.387v8.386a1.244,1.244,0,0,0,1.4,1.4h9.7Zm1.616,0h9.768a1.231,1.231,0,0,0,.99-.354,1.231,1.231,0,0,0,.356-.989q0-4.219,0-8.438a1.247,1.247,0,0,0-1.387-1.386h-9.728Z" transform="translate(273.844 143.918)" fill="#30475e"/>
      <path id="Path_23" data-name="Path 23" d="M-203.593-174.877c-.277-.271-.558-.538-.831-.813a.806.806,0,0,1-.282-.577.806.806,0,0,1,.23-.6.8.8,0,0,1,.6-.228.8.8,0,0,1,.574.287q1.086,1.081,2.166,2.17a.8.8,0,0,1,.3.628.8.8,0,0,1-.3.625q-1.071,1.079-2.147,2.152a.809.809,0,0,1-.584.294.809.809,0,0,1-.61-.233.808.808,0,0,1-.221-.6.808.808,0,0,1,.288-.574,8.927,8.927,0,0,0,.8-.875h-10.81a1.658,1.658,0,0,1-.393-.027.8.8,0,0,1-.594-.807.812.812,0,0,1,.73-.749,2.782,2.782,0,0,1,.29,0h10.766Z" transform="translate(226.358 177.096)" fill="#30475e"/>
      <path id="Path_24" data-name="Path 24" d="M-264.349-163.4c-.264,0-.527.006-.79,0a.8.8,0,0,1-.792-.787.8.8,0,0,1,.763-.792c.544-.017,1.089-.016,1.632,0a.78.78,0,0,1,.554.24.78.78,0,0,1,.217.563.78.78,0,0,1-.234.556.78.78,0,0,1-.56.223C-263.822-163.392-264.086-163.4-264.349-163.4Z" transform="translate(267.42 167.27)" fill="#30475e"/>
      <path id="Path_25" data-name="Path 25" d="M-239.075-163.4c-.272,0-.544.007-.816,0a.8.8,0,0,1-.779-.774.792.792,0,0,1,.749-.8c.561-.02,1.124-.021,1.685,0a.772.772,0,0,1,.536.254.772.772,0,0,1,.2.559.779.779,0,0,1-.781.765C-238.548-163.4-238.811-163.4-239.075-163.4Z" transform="translate(246.901 167.275)" fill="#30475e"/>
      <path id="Path_26" data-name="Path 26" d="M-243.669-108.359a2.382,2.382,0,0,1-2.392,2.35,2.383,2.383,0,0,1-1.677-.72,2.383,2.383,0,0,1-.676-1.7,2.366,2.366,0,0,1,.72-1.676,2.366,2.366,0,0,1,1.7-.666,2.366,2.366,0,0,1,1.662.721,2.366,2.366,0,0,1,.665,1.686Zm-2.377-.819a.784.784,0,0,0-.557.233.784.784,0,0,0-.227.56.8.8,0,0,0,.792.789.8.8,0,0,0,.784-.8.784.784,0,0,0-.233-.557.784.784,0,0,0-.56-.226Z" transform="translate(253.189 123.221)" fill="#30475e"/>
      <path id="Path_27" data-name="Path 27" d="M-238.514-123.455c0,.661-.444,1.066-1,.911a.954.954,0,0,1-.549-1.26.792.792,0,0,1,.385-.478.792.792,0,0,1,.611-.059A.824.824,0,0,1-238.514-123.455Z" transform="translate(246.453 134.279)" fill="#30475e"/>
      <path id="Path_28" data-name="Path 28" d="M-253.779-116.943a.8.8,0,0,1-.8.78,1.115,1.115,0,0,1-.984-1,.8.8,0,0,1,.8-.783,1.135,1.135,0,0,1,.984,1.006Z" transform="translate(259.003 129.058)" fill="#30475e"/>
      <path id="Path_29" data-name="Path 29" d="M-224.731-116.162a.8.8,0,0,1-.8-.784,1.134,1.134,0,0,1,.988-1,.8.8,0,0,1,.8.787,1.115,1.115,0,0,1-.988,1Z" transform="translate(234.603 129.058)" fill="#30475e"/>
      <path id="Path_30" data-name="Path 30" d="M-253.778-87.048a1.12,1.12,0,0,1-1.007.98.8.8,0,0,1-.777-.8,1.13,1.13,0,0,1,1.007-.983.805.805,0,0,1,.777.806Z" transform="translate(259.004 104.617)" fill="#30475e"/>
      <path id="Path_31" data-name="Path 31" d="M-223.744-86.851a.8.8,0,0,1-.8.783,1.115,1.115,0,0,1-.987-1,.8.8,0,0,1,.8-.786,1.135,1.135,0,0,1,.987,1Z" transform="translate(234.604 104.616)" fill="#30475e"/>
      <path id="Path_32" data-name="Path 32" d="M-238.434-80.92a.808.808,0,0,1-.282.756.808.808,0,0,1-.8.135c-.361-.147-.525-.453-.507-.975a.811.811,0,0,1,.561-.8C-238.908-81.979-238.436-81.57-238.434-80.92Z" transform="translate(246.373 99.733)" fill="#30475e"/>
      <path id="Path_33" data-name="Path 33" d="M-261.06-102.356c.627,0,1.011.392.915.936a.926.926,0,0,1-1.253.619.789.789,0,0,1-.5-.4.789.789,0,0,1-.043-.637A.823.823,0,0,1-261.06-102.356Z" transform="translate(264.22 116.395)" fill="#30475e"/>
      <path id="Path_34" data-name="Path 34" d="M-218.583-100.778c-.628,0-1.021-.424-.9-.973.1-.446.486-.662,1.1-.61a.792.792,0,0,1,.742.754C-217.617-101.118-218.006-100.776-218.583-100.778Z" transform="translate(229.713 116.403)" fill="#30475e"/>
      <path id="Path_35" data-name="Path 35" d="M-181.246-115.242a4,4,0,0,1-3.442,3.938,4,4,0,0,1-4.431-3.06.814.814,0,0,1,1-1.084,2.411,2.411,0,0,0,2.023-.689,2.411,2.411,0,0,0,.68-2.026.813.813,0,0,1,1.038-1.007A4,4,0,0,1-181.246-115.242Zm-5.926,1.369a2.363,2.363,0,0,0,2.438.965,2.415,2.415,0,0,0,1.878-2.012,2.3,2.3,0,0,0-.992-2.273A4.071,4.071,0,0,1-187.172-113.873Z" transform="translate(205.048 130.057)" fill="#30475e"/>
    </g>
  </g>
</svg>
