<svg xmlns="http://www.w3.org/2000/svg" width="27" height="27" viewBox="0 0 27 27">
  <g id="privacy" transform="translate(-25 -239)">
    <rect id="Rectangle_15" data-name="Rectangle 15" width="27" height="27" rx="4" transform="translate(25 239)" fill="none"/>
    <g id="privacy-2" data-name="privacy" transform="translate(24.997 239.01)">
      <path id="Path_42" data-name="Path 42" d="M-254.492,281.269q0,.53,0,1.059a.8.8,0,0,1-.211.6.8.8,0,0,1-.581.256h-.008a.79.79,0,0,1-.582-.263.79.79,0,0,1-.2-.608q0-1.825,0-3.651v-2.2a1.494,1.494,0,0,0-1.673-1.667h-12.6A1.493,1.493,0,0,0-272,276.453v17.123a1.493,1.493,0,0,0,1.65,1.66h8.59a1.237,1.237,0,0,1,.237.017.8.8,0,0,1,.635.828.8.8,0,0,1-.742.735c-.035,0-.072,0-.121,0h-.157q-1.25,0-2.5,0t-2.5-.005c-1.327,0-2.414.006-3.424.019h-.048a3.252,3.252,0,0,1-2.156-.778,2.944,2.944,0,0,1-1.009-1.817.167.167,0,0,0-.033-.07l0-.006V275.865l.015-.045a1.038,1.038,0,0,0,.037-.124,3.015,3.015,0,0,1,1.793-2.227,3.964,3.964,0,0,1,.553-.183c.084-.024.171-.048.255-.074h13.8l.144.041q.163.044.325.093a3.036,3.036,0,0,1,2.165,2.9C-254.483,277.917-254.488,279.62-254.492,281.269Z" transform="translate(273.585 -273.212)" fill="#30475e"/>
      <path id="Path_43" data-name="Path 43" d="M-254.492,281.269q0,.53,0,1.059a.8.8,0,0,1-.211.6.8.8,0,0,1-.581.256h-.008a.79.79,0,0,1-.582-.263.79.79,0,0,1-.2-.608q0-1.825,0-3.651v-2.2a1.494,1.494,0,0,0-1.673-1.667h-12.6A1.493,1.493,0,0,0-272,276.453v17.123a1.493,1.493,0,0,0,1.65,1.66h8.59a1.237,1.237,0,0,1,.237.017.8.8,0,0,1,.635.828.8.8,0,0,1-.742.735c-.035,0-.072,0-.121,0h-.157q-1.25,0-2.5,0t-2.5-.005c-1.327,0-2.414.006-3.424.019h-.048a3.252,3.252,0,0,1-2.156-.778,2.944,2.944,0,0,1-1.009-1.817.167.167,0,0,0-.033-.07l0-.006V275.865l.015-.045a1.038,1.038,0,0,0,.037-.124,3.015,3.015,0,0,1,1.793-2.227,3.964,3.964,0,0,1,.553-.183c.084-.024.171-.048.255-.074h13.8l.144.041q.163.044.325.093a3.036,3.036,0,0,1,2.165,2.9C-254.483,277.917-254.488,279.62-254.492,281.269Z" transform="translate(273.585 -273.212)" fill="#30475e"/>
      <path id="Path_44" data-name="Path 44" d="M-188.3,340.173c-.024-.91-.018-1.834-.012-2.73,0-.434.006-.881.005-1.321a.792.792,0,0,0-.61-.861l-.462-.158c-1.741-.6-3.542-1.211-5.318-1.8a1.055,1.055,0,0,0-.323-.048,1.145,1.145,0,0,0-.355.054c-1.544.511-3.108,1.045-4.621,1.562l-1.134.387a.794.794,0,0,0-.616.856q0,.844,0,1.687v1.333c0,.442,0,.9,0,1.347a7.264,7.264,0,0,0,1.272,4.178,12.283,12.283,0,0,0,4.992,4.131,1.046,1.046,0,0,0,.465.117,1.013,1.013,0,0,0,.446-.111,13.3,13.3,0,0,0,4.015-2.9A7.783,7.783,0,0,0-188.3,340.173Zm-1.587.241a6.189,6.189,0,0,1-1.828,4.392,11.618,11.618,0,0,1-3.129,2.353.443.443,0,0,1-.193.045.26.26,0,0,1-.122-.026,10.04,10.04,0,0,1-4.315-3.943,5.524,5.524,0,0,1-.692-2.713c0-.384,0-.768,0-1.152v-1.055c0-.465,0-.944,0-1.416a.342.342,0,0,1,.268-.393c.827-.276,1.666-.561,2.477-.836.721-.245,1.468-.5,2.2-.745a.607.607,0,0,1,.19-.029.712.712,0,0,1,.222.035c.724.242,1.46.492,2.172.734.806.274,1.638.556,2.459.829a.377.377,0,0,1,.294.431c-.006.957-.014,2.219,0,3.49Z" transform="translate(215.298 -321.932)" fill="#30475e"/>
      <path id="Path_45" data-name="Path 45" d="M-188.3,340.173c-.024-.91-.018-1.834-.012-2.73,0-.434.006-.881.005-1.321a.792.792,0,0,0-.61-.861l-.462-.158c-1.741-.6-3.542-1.211-5.318-1.8a1.055,1.055,0,0,0-.323-.048,1.145,1.145,0,0,0-.355.054c-1.544.511-3.108,1.045-4.621,1.562l-1.134.387a.794.794,0,0,0-.616.856q0,.844,0,1.687v1.333c0,.442,0,.9,0,1.347a7.264,7.264,0,0,0,1.272,4.178,12.283,12.283,0,0,0,4.992,4.131,1.046,1.046,0,0,0,.465.117,1.013,1.013,0,0,0,.446-.111,13.3,13.3,0,0,0,4.015-2.9A7.783,7.783,0,0,0-188.3,340.173Zm-1.587.241a6.189,6.189,0,0,1-1.828,4.392,11.618,11.618,0,0,1-3.129,2.353.443.443,0,0,1-.193.045.26.26,0,0,1-.122-.026,10.04,10.04,0,0,1-4.315-3.943,5.524,5.524,0,0,1-.692-2.713c0-.384,0-.768,0-1.152v-1.055c0-.465,0-.944,0-1.416a.342.342,0,0,1,.268-.393c.827-.276,1.666-.561,2.477-.836.721-.245,1.468-.5,2.2-.745a.607.607,0,0,1,.19-.029.712.712,0,0,1,.222.035c.724.242,1.46.492,2.172.734.806.274,1.638.556,2.459.829a.377.377,0,0,1,.294.431c-.006.957-.014,2.219,0,3.49Z" transform="translate(215.298 -321.932)" fill="#30475e"/>
      <path id="Path_46" data-name="Path 46" d="M-243.355,322.114a.737.737,0,0,1-.565.561,1.454,1.454,0,0,1-.352.035l-4.527,0c-2.271,0-4.144,0-5.9-.006a1.276,1.276,0,0,1-.555-.127.742.742,0,0,1-.366-.838.782.782,0,0,1,.721-.608c.059,0,.121,0,.172,0h8.231l2.307,0a.88.88,0,0,1,.71.319.752.752,0,0,1,.121.664Z" transform="translate(259.024 -312.089)" fill="#30475e"/>
      <path id="Path_47" data-name="Path 47" d="M-243.355,322.114a.737.737,0,0,1-.565.561,1.454,1.454,0,0,1-.352.035l-4.527,0c-2.271,0-4.144,0-5.9-.006a1.276,1.276,0,0,1-.555-.127.742.742,0,0,1-.366-.838.782.782,0,0,1,.721-.608c.059,0,.121,0,.172,0h8.231l2.307,0a.88.88,0,0,1,.71.319.752.752,0,0,1,.121.664Z" transform="translate(259.024 -312.089)" fill="#30475e"/>
      <path id="Path_48" data-name="Path 48" d="M-247.833,345.85a.8.8,0,0,1-.269.591.8.8,0,0,1-.619.2h-6a.805.805,0,0,1-.9-.783.743.743,0,0,1,.209-.545.964.964,0,0,1,.7-.254h6a.93.93,0,0,1,.667.247.751.751,0,0,1,.213.548Z" transform="translate(259.009 -331.503)" fill="#30475e"/>
      <path id="Path_49" data-name="Path 49" d="M-247.833,345.85a.8.8,0,0,1-.269.591.8.8,0,0,1-.619.2h-6a.805.805,0,0,1-.9-.783.743.743,0,0,1,.209-.545.964.964,0,0,1,.7-.254h6a.93.93,0,0,1,.667.247.751.751,0,0,1,.213.548Z" transform="translate(259.009 -331.503)" fill="#30475e"/>
      <path id="Path_50" data-name="Path 50" d="M-248.971,297.929a.8.8,0,0,1-.256.571.8.8,0,0,1-.59.209q-.51,0-1.02,0h-1.437l-.055,0h-1.462c-.42,0-.763,0-1.077,0a.767.767,0,0,1-.716-.512.724.724,0,0,1,.214-.845,1.078,1.078,0,0,1,.569-.211c.826-.009,1.715-.013,2.715-.013.657,0,1.361,0,2.285.006a.854.854,0,0,1,.612.242.777.777,0,0,1,.221.558Z" transform="translate(259.024 -292.614)" fill="#30475e"/>
      <path id="Path_51" data-name="Path 51" d="M-248.971,297.929a.8.8,0,0,1-.256.571.8.8,0,0,1-.59.209q-.51,0-1.02,0h-1.437l-.055,0h-1.462c-.42,0-.763,0-1.077,0a.767.767,0,0,1-.716-.512.724.724,0,0,1,.214-.845,1.078,1.078,0,0,1,.569-.211c.826-.009,1.715-.013,2.715-.013.657,0,1.361,0,2.285.006a.854.854,0,0,1,.612.242.777.777,0,0,1,.221.558Z" transform="translate(259.024 -292.614)" fill="#30475e"/>
      <path id="Path_52" data-name="Path 52" d="M-176.733,358.312c-.34.459-.688.923-1.026,1.372l-.416.554-.543.725-1.312,1.75a.9.9,0,0,1-.7.431.969.969,0,0,1-.667-.335c-.7-.7-1.429-1.426-2.149-2.151a.75.75,0,0,1-.195-.841.744.744,0,0,1,.665-.514.779.779,0,0,1,.088-.005.825.825,0,0,1,.6.279c.35.352.7.7,1.061,1.065l.5.5.038-.051.681-.91c.711-.951,1.382-1.849,2.08-2.755a1.122,1.122,0,0,1,.543-.361.654.654,0,0,1,.182-.026.727.727,0,0,1,.616.37.763.763,0,0,1-.044.9Z" transform="translate(200.733 -341.226)" fill="#30475e"/>
      <path id="Path_53" data-name="Path 53" d="M-176.733,358.312c-.34.459-.688.923-1.026,1.372l-.416.554-.543.725-1.312,1.75a.9.9,0,0,1-.7.431.969.969,0,0,1-.667-.335c-.7-.7-1.429-1.426-2.149-2.151a.75.75,0,0,1-.195-.841.744.744,0,0,1,.665-.514.779.779,0,0,1,.088-.005.825.825,0,0,1,.6.279c.35.352.7.7,1.061,1.065l.5.5.038-.051.681-.91c.711-.951,1.382-1.849,2.08-2.755a1.122,1.122,0,0,1,.543-.361.654.654,0,0,1,.182-.026.727.727,0,0,1,.616.37.763.763,0,0,1-.044.9Z" transform="translate(200.733 -341.226)" fill="#30475e"/>
    </g>
  </g>
</svg>
