<svg xmlns="http://www.w3.org/2000/svg" width="27" height="27" viewBox="0 0 27 27">
  <g id="share" transform="translate(-25 -333)">
    <rect id="Rectangle_17" data-name="Rectangle 17" width="27" height="27" rx="4" transform="translate(25 333)" fill="none"/>
    <g id="share-2" data-name="share" transform="translate(25.815 332.996)">
      <path id="Path_74" data-name="Path 74" d="M-229.065,673.375A5.334,5.334,0,0,0-233,669.159a6.054,6.054,0,0,0-1.643-.24,5.493,5.493,0,0,0-3.961,1.8.871.871,0,0,1-.622.292.881.881,0,0,1-.493-.161c-1-.66-2.067-1.348-3.158-2.041a.88.88,0,0,1-.42-1.017,5.08,5.08,0,0,0,0-2.416.881.881,0,0,1,.41-1.02c1.085-.687,2.14-1.368,3.134-2.024a.938.938,0,0,1,.524-.174.924.924,0,0,1,.659.317,5.435,5.435,0,0,0,3.982,1.756,6.378,6.378,0,0,0,.955-.075,5.478,5.478,0,0,0,3.458-2.005,5.588,5.588,0,0,0,1.226-3.825,5.554,5.554,0,0,0-1.645-3.625,5.578,5.578,0,0,0-3.648-1.613c-.1-.005-.193-.007-.287-.007a5.524,5.524,0,0,0-4.335,2.094,5.541,5.541,0,0,0-1.082,4.7.885.885,0,0,1-.427,1.011c-.5.315-1.009.644-1.5.964l-.646.418q-.414.268-.83.533l-.8.512-.338-.386a5.541,5.541,0,0,0-4.215-1.922,5.623,5.623,0,0,0-4.035,1.7,5.558,5.558,0,0,0-1.56,3.783,5.613,5.613,0,0,0,1.447,3.847,5.614,5.614,0,0,0,4.184,1.824,5.4,5.4,0,0,0,4.172-1.909l.287-.342.408.183.01,0a.943.943,0,0,1,.168.083l.912.589c.783.507,1.593,1.03,2.393,1.537a.834.834,0,0,1,.367.971l0,.011A5.568,5.568,0,0,0-236,679.872c.221.061.454.105.7.151.1.019.2.037.3.057h.769a.948.948,0,0,0,.472-.305.734.734,0,0,0,.073-.823c-.11-.221-.29-.425-.838-.438a3.839,3.839,0,0,1-3.64-2.379,3.814,3.814,0,0,1,.634-4.257,3.824,3.824,0,0,1,2.929-1.4,4.429,4.429,0,0,1,1.226.182,3.968,3.968,0,0,1,2.553,2.252,4.048,4.048,0,0,1-.132,3.471.8.8,0,0,0-.063.617.772.772,0,0,0,.4.449.784.784,0,0,0,.352.086.8.8,0,0,0,.7-.46A5.252,5.252,0,0,0-229.065,673.375Zm-5.441-18.733h.018a4.02,4.02,0,0,1,3.987,4.038,4.019,4.019,0,0,1-4.019,3.99h-.009a4.018,4.018,0,0,1-4-4.017,4.024,4.024,0,0,1,4.024-4.012Zm-14.22,15.951a3.985,3.985,0,0,1-2.84-1.18,4,4,0,0,1-1.175-2.85,4.018,4.018,0,0,1,4.018-3.994h.007a4.018,4.018,0,0,1,4,4.016,4.017,4.017,0,0,1-4.013,4.007Z" transform="translate(254.299 -653.077)" fill="#30475e"/>
      <path id="Path_75" data-name="Path 75" d="M-229.065,673.375A5.334,5.334,0,0,0-233,669.159a6.054,6.054,0,0,0-1.643-.24,5.493,5.493,0,0,0-3.961,1.8.871.871,0,0,1-.622.292.881.881,0,0,1-.493-.161c-1-.66-2.067-1.348-3.158-2.041a.88.88,0,0,1-.42-1.017,5.08,5.08,0,0,0,0-2.416.881.881,0,0,1,.41-1.02c1.085-.687,2.14-1.368,3.134-2.024a.938.938,0,0,1,.524-.174.924.924,0,0,1,.659.317,5.435,5.435,0,0,0,3.982,1.756,6.378,6.378,0,0,0,.955-.075,5.478,5.478,0,0,0,3.458-2.005,5.588,5.588,0,0,0,1.226-3.825,5.554,5.554,0,0,0-1.645-3.625,5.578,5.578,0,0,0-3.648-1.613c-.1-.005-.193-.007-.287-.007a5.524,5.524,0,0,0-4.335,2.094,5.541,5.541,0,0,0-1.082,4.7.885.885,0,0,1-.427,1.011c-.5.315-1.009.644-1.5.964l-.646.418q-.414.268-.83.533l-.8.512-.338-.386a5.541,5.541,0,0,0-4.215-1.922,5.623,5.623,0,0,0-4.035,1.7,5.558,5.558,0,0,0-1.56,3.783,5.613,5.613,0,0,0,1.447,3.847,5.614,5.614,0,0,0,4.184,1.824,5.4,5.4,0,0,0,4.172-1.909l.287-.342.408.183.01,0a.943.943,0,0,1,.168.083l.912.589c.783.507,1.593,1.03,2.393,1.537a.834.834,0,0,1,.367.971l0,.011A5.568,5.568,0,0,0-236,679.872c.221.061.454.105.7.151.1.019.2.037.3.057h.769a.948.948,0,0,0,.472-.305.734.734,0,0,0,.073-.823c-.11-.221-.29-.425-.838-.438a3.839,3.839,0,0,1-3.64-2.379,3.814,3.814,0,0,1,.634-4.257,3.824,3.824,0,0,1,2.929-1.4,4.429,4.429,0,0,1,1.226.182,3.968,3.968,0,0,1,2.553,2.252,4.048,4.048,0,0,1-.132,3.471.8.8,0,0,0-.063.617.772.772,0,0,0,.4.449.784.784,0,0,0,.352.086.8.8,0,0,0,.7-.46A5.252,5.252,0,0,0-229.065,673.375Zm-5.441-18.733h.018a4.02,4.02,0,0,1,3.987,4.038,4.019,4.019,0,0,1-4.019,3.99h-.009a4.018,4.018,0,0,1-4-4.017,4.024,4.024,0,0,1,4.024-4.012Zm-14.22,15.951a3.985,3.985,0,0,1-2.84-1.18,4,4,0,0,1-1.175-2.85,4.018,4.018,0,0,1,4.018-3.994h.007a4.018,4.018,0,0,1,4,4.016,4.017,4.017,0,0,1-4.013,4.007Z" transform="translate(254.299 -653.077)" fill="#30475e"/>
    </g>
  </g>
</svg>
