<svg xmlns="http://www.w3.org/2000/svg" width="27" height="27" viewBox="0 0 27 27">
  <g id="terms" transform="translate(-25 -286)">
    <rect id="Rectangle_16" data-name="Rectangle 16" width="27" height="27" rx="4" transform="translate(25 286)" fill="none"/>
    <g id="terms-2" data-name="terms" transform="translate(25.568 286.002)">
      <path id="Path_54" data-name="Path 54" d="M-240.9,469.363c-.21-.059-.418-.107-.64-.157l-.309-.072-.041-.01V458.434a3.254,3.254,0,0,0-.92-2.322,3.238,3.238,0,0,0-2.317-.921H-258.81a3.146,3.146,0,0,0-2.332.922,3.146,3.146,0,0,0-.917,2.334q0,9.078,0,18.157a3.283,3.283,0,0,0,.917,2.348,3.27,3.27,0,0,0,2.344.918h3.981c1.978,0,4.324,0,6.743,0a.687.687,0,0,1,.562.238,6.266,6.266,0,0,0,3.027,1.845c.265.071.541.122.808.171.124.022.247.045.37.069h1.154l.158-.03c.116-.023.235-.046.354-.066a6.523,6.523,0,0,0,3.7-1.994,6.532,6.532,0,0,0,1.727-3.88,6.525,6.525,0,0,0-4.679-6.856Zm-7.5,3.021a6.507,6.507,0,0,0-.327,5.932l.028.073h-10.07a1.665,1.665,0,0,1-1.811-1.813V458.5a1.679,1.679,0,0,1,1.827-1.827H-245.2a1.681,1.681,0,0,1,1.829,1.827v10.614l-.046.006a6.492,6.492,0,0,0-4.983,3.263Zm5.662,8.324h-.017a5.036,5.036,0,0,1-3.571-1.5,5,5,0,0,1-1.474-3.571,5.083,5.083,0,0,1,5.066-5.057h.041a5.064,5.064,0,0,1,5.016,5.063,5.076,5.076,0,0,1-5.062,5.061Z" transform="translate(262.059 -455.191)" fill="#30475e"/>
      <path id="Path_55" data-name="Path 55" d="M-240.9,469.363c-.21-.059-.418-.107-.64-.157l-.309-.072-.041-.01V458.434a3.254,3.254,0,0,0-.92-2.322,3.238,3.238,0,0,0-2.317-.921H-258.81a3.146,3.146,0,0,0-2.332.922,3.146,3.146,0,0,0-.917,2.334q0,9.078,0,18.157a3.283,3.283,0,0,0,.917,2.348,3.27,3.27,0,0,0,2.344.918h3.981c1.978,0,4.324,0,6.743,0a.687.687,0,0,1,.562.238,6.266,6.266,0,0,0,3.027,1.845c.265.071.541.122.808.171.124.022.247.045.37.069h1.154l.158-.03c.116-.023.235-.046.354-.066a6.523,6.523,0,0,0,3.7-1.994,6.532,6.532,0,0,0,1.727-3.88,6.525,6.525,0,0,0-4.679-6.856Zm-7.5,3.021a6.507,6.507,0,0,0-.327,5.932l.028.073h-10.07a1.665,1.665,0,0,1-1.811-1.813V458.5a1.679,1.679,0,0,1,1.827-1.827H-245.2a1.681,1.681,0,0,1,1.829,1.827v10.614l-.046.006a6.492,6.492,0,0,0-4.983,3.263Zm5.662,8.324h-.017a5.036,5.036,0,0,1-3.571-1.5,5,5,0,0,1-1.474-3.571,5.083,5.083,0,0,1,5.066-5.057h.041a5.064,5.064,0,0,1,5.016,5.063,5.076,5.076,0,0,1-5.062,5.061Z" transform="translate(262.059 -455.191)" fill="#30475e"/>
      <path id="Path_56" data-name="Path 56" d="M-238.494,500.469a.719.719,0,0,1-.2.527.834.834,0,0,1-.6.23c-.713,0-1.466,0-2.24,0-.751,0-1.525,0-2.366,0a.755.755,0,0,1-.8-.608.727.727,0,0,1,.473-.824,1.143,1.143,0,0,1,.346-.046q.583,0,1.166,0h3.387A.741.741,0,0,1-238.494,500.469Z" transform="translate(247.982 -491.342)" fill="#30475e"/>
      <path id="Path_57" data-name="Path 57" d="M-238.494,500.469a.719.719,0,0,1-.2.527.834.834,0,0,1-.6.23c-.713,0-1.466,0-2.24,0-.751,0-1.525,0-2.366,0a.755.755,0,0,1-.8-.608.727.727,0,0,1,.473-.824,1.143,1.143,0,0,1,.346-.046q.583,0,1.166,0h3.387A.741.741,0,0,1-238.494,500.469Z" transform="translate(247.982 -491.342)" fill="#30475e"/>
      <path id="Path_58" data-name="Path 58" d="M-238.494,517.307a.721.721,0,0,1-.2.527.836.836,0,0,1-.6.23c-.711,0-1.464,0-2.236,0-.75,0-1.525,0-2.369,0a.755.755,0,0,1-.8-.608.726.726,0,0,1,.473-.823,1.118,1.118,0,0,1,.346-.047q.579,0,1.158,0h3.394A.743.743,0,0,1-238.494,517.307Z" transform="translate(247.981 -505.004)" fill="#30475e"/>
      <path id="Path_59" data-name="Path 59" d="M-238.494,517.307a.721.721,0,0,1-.2.527.836.836,0,0,1-.6.23c-.711,0-1.464,0-2.236,0-.75,0-1.525,0-2.369,0a.755.755,0,0,1-.8-.608.726.726,0,0,1,.473-.823,1.118,1.118,0,0,1,.346-.047q.579,0,1.158,0h3.394A.743.743,0,0,1-238.494,517.307Z" transform="translate(247.981 -505.004)" fill="#30475e"/>
      <path id="Path_60" data-name="Path 60" d="M-238.494,534.15a.712.712,0,0,1-.2.521.879.879,0,0,1-.632.235l-2.223,0-2.33,0a.761.761,0,0,1-.819-.61.725.725,0,0,1,.475-.823,1.233,1.233,0,0,1,.373-.046q.553,0,1.105,0h3.421A.739.739,0,0,1-238.494,534.15Z" transform="translate(247.981 -518.668)" fill="#30475e"/>
      <path id="Path_61" data-name="Path 61" d="M-238.494,534.15a.712.712,0,0,1-.2.521.879.879,0,0,1-.632.235l-2.223,0-2.33,0a.761.761,0,0,1-.819-.61.725.725,0,0,1,.475-.823,1.233,1.233,0,0,1,.373-.046q.553,0,1.105,0h3.421A.739.739,0,0,1-238.494,534.15Z" transform="translate(247.981 -518.668)" fill="#30475e"/>
      <path id="Path_62" data-name="Path 62" d="M-238.481,551.263a.719.719,0,0,1-.2.525.843.843,0,0,1-.6.233c-.274,0-.57,0-.93,0h-2.741c-.362,0-.658,0-.934,0a.745.745,0,0,1-.8-.68.738.738,0,0,1,.186-.562.757.757,0,0,1,.56-.235c.329,0,.687,0,1.125,0h2.713l.819,0a.735.735,0,0,1,.561.184.735.735,0,0,1,.245.537Z" transform="translate(247.967 -532.553)" fill="#30475e"/>
      <path id="Path_63" data-name="Path 63" d="M-238.481,551.263a.719.719,0,0,1-.2.525.843.843,0,0,1-.6.233c-.274,0-.57,0-.93,0h-2.741c-.362,0-.658,0-.934,0a.745.745,0,0,1-.8-.68.738.738,0,0,1,.186-.562.757.757,0,0,1,.56-.235c.329,0,.687,0,1.125,0h2.713l.819,0a.735.735,0,0,1,.561.184.735.735,0,0,1,.245.537Z" transform="translate(247.967 -532.553)" fill="#30475e"/>
      <path id="Path_64" data-name="Path 64" d="M-238.494,483.629a.716.716,0,0,1-.2.522.863.863,0,0,1-.632.235q-1.109,0-2.217,0-1.168,0-2.335,0a.762.762,0,0,1-.819-.61.727.727,0,0,1,.475-.823,1.132,1.132,0,0,1,.346-.045q.573,0,1.145,0h3.407A.741.741,0,0,1-238.494,483.629Z" transform="translate(247.981 -477.678)" fill="#30475e"/>
      <path id="Path_65" data-name="Path 65" d="M-238.494,483.629a.716.716,0,0,1-.2.522.863.863,0,0,1-.632.235q-1.109,0-2.217,0-1.168,0-2.335,0a.762.762,0,0,1-.819-.61.727.727,0,0,1,.475-.823,1.132,1.132,0,0,1,.346-.045q.573,0,1.145,0h3.407A.741.741,0,0,1-238.494,483.629Z" transform="translate(247.981 -477.678)" fill="#30475e"/>
      <path id="Path_66" data-name="Path 66" d="M-199.206,483.626a.735.735,0,0,1-.2.533.793.793,0,0,1-.571.225c-.762,0-1.546.007-2.335.007-.757,0-1.538,0-2.323-.007a.8.8,0,0,1-.576-.225.731.731,0,0,1-.2-.527.731.731,0,0,1,.24-.539.731.731,0,0,1,.56-.187c.309,0,.62,0,.93,0h2.745l.931,0a.734.734,0,0,1,.561.183.734.734,0,0,1,.246.536Z" transform="translate(216.102 -477.678)" fill="#30475e"/>
      <path id="Path_67" data-name="Path 67" d="M-199.206,483.626a.735.735,0,0,1-.2.533.793.793,0,0,1-.571.225c-.762,0-1.546.007-2.335.007-.757,0-1.538,0-2.323-.007a.8.8,0,0,1-.576-.225.731.731,0,0,1-.2-.527.731.731,0,0,1,.24-.539.731.731,0,0,1,.56-.187c.309,0,.62,0,.93,0h2.745l.931,0a.734.734,0,0,1,.561.183.734.734,0,0,1,.246.536Z" transform="translate(216.102 -477.678)" fill="#30475e"/>
      <path id="Path_68" data-name="Path 68" d="M-199.2,500.472a.715.715,0,0,1-.2.522.843.843,0,0,1-.606.231c-.782,0-1.56,0-2.311,0-.775,0-1.546,0-2.294-.005a.83.83,0,0,1-.6-.231.718.718,0,0,1-.2-.529.735.735,0,0,1,.246-.536.735.735,0,0,1,.56-.183l.945,0h3.634A.738.738,0,0,1-199.2,500.472Z" transform="translate(216.1 -491.34)" fill="#30475e"/>
      <path id="Path_69" data-name="Path 69" d="M-199.2,500.472a.715.715,0,0,1-.2.522.843.843,0,0,1-.606.231c-.782,0-1.56,0-2.311,0-.775,0-1.546,0-2.294-.005a.83.83,0,0,1-.6-.231.718.718,0,0,1-.2-.529.735.735,0,0,1,.246-.536.735.735,0,0,1,.56-.183l.945,0h3.634A.738.738,0,0,1-199.2,500.472Z" transform="translate(216.1 -491.34)" fill="#30475e"/>
      <path id="Path_70" data-name="Path 70" d="M-201.655,517.31a.739.739,0,0,1-.212.526.739.739,0,0,1-.522.221c-.381.01-.768.014-1.151.014s-.765,0-1.145-.014a.748.748,0,0,1-.534-.226.747.747,0,0,1-.2-.542.729.729,0,0,1,.235-.513.729.729,0,0,1,.531-.191c.142,0,.284,0,.427,0h1.367c.141,0,.283,0,.425,0a.741.741,0,0,1,.542.2A.742.742,0,0,1-201.655,517.31Z" transform="translate(216.101 -505.001)" fill="#30475e"/>
      <path id="Path_71" data-name="Path 71" d="M-201.655,517.31a.739.739,0,0,1-.212.526.739.739,0,0,1-.522.221c-.381.01-.768.014-1.151.014s-.765,0-1.145-.014a.748.748,0,0,1-.534-.226.747.747,0,0,1-.2-.542.729.729,0,0,1,.235-.513.729.729,0,0,1,.531-.191c.142,0,.284,0,.427,0h1.367c.141,0,.283,0,.425,0a.741.741,0,0,1,.542.2A.742.742,0,0,1-201.655,517.31Z" transform="translate(216.101 -505.001)" fill="#30475e"/>
      <path id="Path_72" data-name="Path 72" d="M-169.5,552.63c-.841,1.055-1.666,2.08-2.451,3.052a.767.767,0,0,1-.595.328.868.868,0,0,1-.5-.182c-.613-.437-1.219-.875-1.8-1.3a.8.8,0,0,1-.329-.527.718.718,0,0,1,.141-.539.713.713,0,0,1,.575-.291.848.848,0,0,1,.484.16c.268.188.538.382.8.57l.405.291a.067.067,0,0,0,.04.012h.071l1.177-1.464c.084-.107.171-.214.257-.321.186-.233.379-.475.572-.709a.822.822,0,0,1,.624-.318.71.71,0,0,1,.448.162.745.745,0,0,1,.273.522.745.745,0,0,1-.192.557Z" transform="translate(191.57 -533.241)" fill="#30475e"/>
      <path id="Path_73" data-name="Path 73" d="M-169.5,552.63c-.841,1.055-1.666,2.08-2.451,3.052a.767.767,0,0,1-.595.328.868.868,0,0,1-.5-.182c-.613-.437-1.219-.875-1.8-1.3a.8.8,0,0,1-.329-.527.718.718,0,0,1,.141-.539.713.713,0,0,1,.575-.291.848.848,0,0,1,.484.16c.268.188.538.382.8.57l.405.291a.067.067,0,0,0,.04.012h.071l1.177-1.464c.084-.107.171-.214.257-.321.186-.233.379-.475.572-.709a.822.822,0,0,1,.624-.318.71.71,0,0,1,.448.162.745.745,0,0,1,.273.522.745.745,0,0,1-.192.557Z" transform="translate(191.57 -533.241)" fill="#30475e"/>
    </g>
  </g>
</svg>
