<svg xmlns="http://www.w3.org/2000/svg" width="34.296" height="30" viewBox="0 0 34.296 30">
  <g id="website" transform="translate(1019.653 927.236)">
    <path id="Path_9" data-name="Path 9" d="M-985.357-821.06a7.856,7.856,0,0,1-.6,1.433,2.919,2.919,0,0,1-2.6,1.256q-4.954,0-9.908,0h-17.975a2.941,2.941,0,0,1-2.889-1.735,3.454,3.454,0,0,1-.3-1.391c-.028-2.619-.021-5.239-.011-7.858a3.011,3.011,0,0,1,3.1-3.122q14.042-.011,28.084,0a2.99,2.99,0,0,1,3.051,2.56.714.714,0,0,0,.048.124Zm-27.265-4.11c.083.149.133.232.177.319.316.629.614,1.268.949,1.886a.947.947,0,0,0,1.689.082,2.941,2.941,0,0,0,.207-.344q1.022-2,2.046-4.007c.027.05.055.095.078.142.648,1.337,1.29,2.676,1.944,4.01a.98.98,0,0,0,1.079.616,1.02,1.02,0,0,0,.83-.6c.381-.69.77-1.376,1.179-2.107.079.141.135.233.183.329.3.589.592,1.178.882,1.77a1.023,1.023,0,0,0,.964.658,1.022,1.022,0,0,0,.936-.649c.68-1.369,1.363-2.736,2.067-4.149.673,1.363,1.352,2.694,1.984,4.046a1.035,1.035,0,0,0,.883.7,1.015,1.015,0,0,0,1.079-.573c.213-.418.418-.841.628-1.26.138-.275.279-.547.442-.867.082.144.139.236.187.331q.443.884.881,1.77a1.02,1.02,0,0,0,.937.648,1.006,1.006,0,0,0,.948-.63c.648-1.3,1.3-2.6,1.941-3.9a.956.956,0,0,0-.433-1.387.955.955,0,0,0-1.363.5c-.321.626-.629,1.26-.945,1.889a2.812,2.812,0,0,1-.155.24c-.365-.732-.708-1.42-1.053-2.108a.982.982,0,0,0-.939-.583.982.982,0,0,0-.938.585q-.428.854-.854,1.709c-.062.124-.128.245-.216.414-.087-.165-.146-.27-.2-.377-.29-.58-.571-1.164-.87-1.738a1.013,1.013,0,0,0-1.505-.476,3.028,3.028,0,0,0-.49.579.94.94,0,0,0-.873-.737.979.979,0,0,0-1,.589c-.138.255-.261.519-.39.779l-.69,1.382c-.086-.153-.143-.245-.191-.341-.28-.56-.566-1.117-.833-1.682a1.088,1.088,0,0,0-1.052-.686,1.093,1.093,0,0,0-1.077.7c-.206.446-.436.881-.656,1.321-.107.214-.218.426-.356.7-.376-.751-.717-1.438-1.062-2.123a1.01,1.01,0,0,0-1.006-.638,1,1,0,0,0-.912.792c-.01-.005-.024-.007-.029-.016a.434.434,0,0,1-.047-.087.95.95,0,0,0-.9-.679.953.953,0,0,0-.939.523c-.112.193-.207.4-.307.6-.263.524-.524,1.049-.811,1.622-.084-.149-.142-.24-.19-.336-.29-.579-.585-1.156-.865-1.741a1.032,1.032,0,0,0-.961-.664,1.023,1.023,0,0,0-.962.66c-.3.614-.606,1.221-.913,1.829a2.679,2.679,0,0,1-.155.236c-.371-.744-.712-1.446-1.07-2.141a.953.953,0,0,0-1.37-.478.95.95,0,0,0-.427,1.363c.644,1.315,1.293,2.626,1.963,3.928a1.3,1.3,0,0,0,.5.512.972.972,0,0,0,1.359-.524C-1013.335-823.728-1013-824.42-1012.622-825.171Z" transform="translate(0 -86.827)" fill="#ff7272"/>
    <path id="Path_10" data-name="Path 10" d="M-948.061-926.937c-.155.042-.311.083-.466.126a7.22,7.22,0,0,0-3.89,2.776,30.968,30.968,0,0,0-1.7,2.763.429.429,0,0,1-.428.273c-1.464-.013-2.929-.007-4.484-.007A15.017,15.017,0,0,1-948.061-926.937Z" transform="translate(-55.525 -0.274)" fill="#ff7272"/>
    <path id="Path_11" data-name="Path 11" d="M-801.577-927.236a14.983,14.983,0,0,1,10.912,5.933c-.113.009-.2.023-.3.023-1.377,0-2.754-.005-4.13.007a.4.4,0,0,1-.43-.268,12.352,12.352,0,0,0-2.494-3.671,6.883,6.883,0,0,0-3.322-1.925,1.937,1.937,0,0,1-.193-.057C-801.548-927.2-801.562-927.221-801.577-927.236Z" transform="translate(-199.836)" fill="#ff7272"/>
    <path id="Path_12" data-name="Path 12" d="M-959.057-640.986h.409c1.186,0,2.375.04,3.558-.017a1.031,1.031,0,0,1,1.173.718A10.6,10.6,0,0,0-951.8-637.2a7.017,7.017,0,0,0,3.525,2.091,1.619,1.619,0,0,1,.159.049c.008,0,.013.018.047.071A15.326,15.326,0,0,1-959.057-640.986Z" transform="translate(-55.499 -262.244)" fill="#ff7272"/>
    <path id="Path_13" data-name="Path 13" d="M-801.1-634.78c.617-.261,1.275-.483,1.878-.806a8.686,8.686,0,0,0,3.119-3.082c.388-.6.691-1.251,1.048-1.87a.458.458,0,0,1,.307-.221c1.466-.014,2.932-.009,4.4-.008a.846.846,0,0,1,.143.037A15.267,15.267,0,0,1-801.1-634.78Z" transform="translate(-200.273 -262.461)" fill="#ff7272"/>
    <path id="Path_14" data-name="Path 14" d="M-875.649-898.745a7.508,7.508,0,0,1,3.994-3.863v3.863Z" transform="translate(-131.932 -22.557)" fill="#ff7272"/>
    <path id="Path_15" data-name="Path 15" d="M-798.044-898.681h-3.989v-3.863C-800.1-901.88-799-900.387-798.044-898.681Z" transform="translate(-199.377 -22.615)" fill="#ff7272"/>
    <path id="Path_16" data-name="Path 16" d="M-875.665-640.558h4v3.865C-873.61-637.358-874.7-638.852-875.665-640.558Z" transform="translate(-131.918 -262.655)" fill="#ff7272"/>
    <path id="Path_17" data-name="Path 17" d="M-798.1-640.49a7.518,7.518,0,0,1-3.991,3.863v-3.863Z" transform="translate(-199.322 -262.717)" fill="#ff7272"/>
  </g>
</svg>
